<svg width="40" height="40" viewBox="0 0 40 40" fill="none" xmlns="http://www.w3.org/2000/svg">
<path d="M24.1469 20.4347C24.1469 18.2704 22.3784 16.5092 20.2047 16.5092C18.0313 16.5092 16.2629 18.2704 16.2629 20.4347C16.2629 22.5997 18.0313 24.3605 20.2047 24.3605C22.3784 24.3605 24.1469 22.5997 24.1469 20.4347ZM30.0034 0H9.99659C4.48446 0 0 4.46627 0 9.95589V12.7299H14.71C16.2622 11.6287 18.1579 10.9782 20.2047 10.9782C22.2516 10.9782 24.1475 11.6287 25.6998 12.7299H40V9.95589C40 4.46623 35.5155 0 30.0034 0ZM34.0519 9.46882C34.0519 10.0772 33.5523 10.575 32.9412 10.575H29.5092C28.8982 10.575 28.3985 10.0772 28.3985 9.46882V6.05062C28.3985 5.44228 28.8982 4.9444 29.5092 4.9444H32.9412C33.5522 4.9444 34.0519 5.4422 34.0519 6.05062V9.46882ZM29.7004 20.4347C29.7004 25.6496 25.4404 29.8914 20.2047 29.8914C14.9688 29.8914 10.7092 25.6496 10.7092 20.4347C10.7092 18.9991 11.0339 17.6376 11.6113 16.4172H0V30.0441C0 35.5341 4.48446 40 9.99659 40H30.0035C35.5155 40 40 35.5341 40 30.0441V16.4172H28.7983C29.3757 17.6376 29.7004 18.9991 29.7004 20.4347Z" fill="white"/>
</svg>
