<svg width="40" height="40" viewBox="0 0 40 40" fill="none" xmlns="http://www.w3.org/2000/svg">
<path d="M9.08031 40V13.0121H0.505887V40H9.08031ZM4.79421 9.32511C7.78426 9.32511 9.64543 7.25275 9.64543 4.663C9.58972 2.01484 7.78438 0 4.85095 0C1.91798 0 0 2.01488 0 4.663C0 7.25287 1.86071 9.32511 4.73823 9.32511H4.79394H4.79421ZM13.8262 40H22.4007V24.9286C22.4007 24.122 22.4564 23.3163 22.6828 22.7397C23.3027 21.1281 24.7135 19.459 27.0821 19.459C30.1848 19.459 31.4261 21.9339 31.4261 25.5619V39.9998H40V24.5252C40 16.2355 35.7698 12.3785 30.1284 12.3785C25.5028 12.3785 23.4719 15.0833 22.3436 16.9256H22.4009V13.0115H13.8264C13.939 15.5439 13.8264 39.9994 13.8264 39.9994L13.8262 40Z" fill="white"/>
</svg>
