<svg width="54" height="42" viewBox="0 0 54 42" fill="none" xmlns="http://www.w3.org/2000/svg">
<path d="M54 4.98908C52.0142 5.80919 49.8531 6.39943 47.6272 6.62931C49.9382 5.31486 51.6689 3.23825 52.4944 0.789078C50.3258 2.02416 47.9501 2.89022 45.4727 3.34884C44.4372 2.28906 43.1849 1.4448 41.7937 0.868651C40.4026 0.292504 38.9024 -0.00317972 37.3866 2.57865e-05C31.2539 2.57865e-05 26.3218 4.75919 26.3218 10.5994C26.3218 11.4195 26.4257 12.2397 26.5944 13.0287C17.4116 12.569 9.22173 8.36896 3.77695 1.93849C2.78485 3.5608 2.26496 5.40799 2.27136 7.28789C2.27136 10.966 4.22473 14.2092 7.20346 16.1166C5.44805 16.0504 3.73375 15.5885 2.19998 14.7684V14.8988C2.19998 20.0494 6.00288 24.3178 11.0713 25.2994C10.1196 25.5361 9.14065 25.6571 8.15743 25.6598C7.43709 25.6598 6.75568 25.5914 6.06778 25.4982C7.46953 29.6982 11.5515 32.7488 16.4122 32.8482C12.6093 35.7 7.84593 37.3775 2.67372 37.3775C1.7457 37.3775 0.889076 37.3465 0 37.247C4.90614 40.2604 10.7273 42 16.9963 42C37.3477 42 48.4838 25.8586 48.4838 11.8482C48.4838 11.3885 48.4838 10.9287 48.4514 10.469C50.6059 8.95919 52.4944 7.08907 54 4.98908Z" fill="white"/>
</svg>
