<svg width="40" height="40" viewBox="0 0 40 40" fill="none" xmlns="http://www.w3.org/2000/svg">
<path d="M19.9952 2.27876e-06C14.6922 2.27876e-06 9.6063 2.10714 5.85647 5.85787C2.10663 9.60859 0 14.6957 0 20C0 20.6429 -9.57703e-08 21.2714 0.099976 21.9C0.468017 25.7575 1.94849 29.425 4.36141 32.4567C6.77434 35.4883 10.0158 37.7536 13.6917 38.977C17.3677 40.2005 21.3198 40.3294 25.0677 39.3482C28.8155 38.3671 32.1977 36.318 34.8031 33.4501C37.4084 30.5822 39.1248 27.019 39.7434 23.1937C40.362 19.3684 39.8564 15.4457 38.2878 11.9025C36.7193 8.35926 34.1555 5.34811 30.908 3.23508C27.6606 1.12205 23.8693 -0.00184713 19.9952 2.27876e-06ZM19.9952 2.85715C24.5112 2.86107 28.8431 4.64765 32.0495 7.82857V9.25714C26.4045 7.31403 20.2682 7.3392 14.6394 9.32857C14.1897 8.89028 13.6252 8.58817 13.0112 8.45714H12.6541C12.4827 7.85715 12.3256 7.25715 12.1971 6.64286C12.0685 6.02857 11.9971 5.48572 11.9257 4.9C14.4051 3.56167 17.1778 2.85974 19.9952 2.85715ZM15.7105 11.2429C20.8974 9.50552 26.5188 9.57096 31.6639 11.4286C30.968 15.058 29.4483 18.4792 27.2221 21.4286C26.5994 21.1648 25.91 21.1015 25.2497 21.2474C24.5894 21.3933 23.9909 21.7412 23.5372 22.2429C23.0374 21.9571 22.5375 21.6714 22.109 21.3429C19.2258 19.4187 16.818 16.8638 15.0678 13.8714C15.3507 13.5206 15.5567 13.1142 15.6723 12.6785C15.7879 12.2429 15.8107 11.7878 15.7391 11.3429L15.7105 11.2429ZM9.99761 6.1C9.99761 6.4 10.0833 6.71429 10.1404 7.01429C10.269 7.64286 10.4404 8.25714 10.6118 8.87143C10.0648 9.19537 9.62465 9.67233 9.34548 10.2435C9.06631 10.8147 8.96036 11.455 9.0407 12.0857C6.78624 13.5583 4.77253 15.3701 3.0707 17.4571C3.41218 15.1968 4.20219 13.0276 5.39424 11.0772C6.58628 9.12676 8.1563 7.43451 10.0119 6.1H9.99761ZM9.99761 28.5429C9.44007 28.7301 8.94179 29.0611 8.55309 29.5026C8.1644 29.944 7.89905 30.4803 7.78385 31.0571H6.86979C4.5633 28.3055 3.18382 24.896 2.92787 21.3143L3.08498 21.0429C4.87343 18.2691 7.21151 15.8915 9.95477 14.0571C10.3661 14.4868 10.8858 14.7973 11.459 14.9557C12.0323 15.1141 12.6376 15.1146 13.2111 14.9571C15.1215 18.1862 17.7328 20.9446 20.8522 23.0286C21.4377 23.4143 22.0376 23.7714 22.6375 24.1143C22.5895 24.6607 22.6778 25.2105 22.8945 25.7143C20.2808 27.7903 17.266 29.303 14.0395 30.1571C13.6653 29.4579 13.0548 28.9145 12.317 28.624C11.5792 28.3335 10.7622 28.3149 10.0119 28.5714L9.99761 28.5429ZM19.9952 37.1143C17.0905 37.1151 14.2339 36.3725 11.6972 34.9571L12.0971 34.8714C12.6654 34.6849 13.1733 34.3492 13.5677 33.8994C13.9622 33.4497 14.2287 32.9022 14.3394 32.3143C17.9914 31.3827 21.4008 29.6776 24.337 27.3143C25.0345 27.722 25.8581 27.8571 26.6493 27.6936C27.4404 27.53 28.143 27.0794 28.6217 26.4286C30.6368 26.9526 32.7097 27.2213 34.7917 27.2286H35.5487C34.1708 30.1923 31.9746 32.7002 29.2189 34.4568C26.4632 36.2133 23.2629 37.1453 19.9952 37.1429V37.1143ZM29.293 24.4C29.2916 23.8013 29.1288 23.214 28.8217 22.7C31.1986 19.5945 32.8527 15.9975 33.6634 12.1714C34.3775 12.5048 35.0821 12.8762 35.7772 13.2857C37.348 16.9985 37.5604 21.1462 36.377 25C34.0058 25.1834 31.6205 24.9954 29.3073 24.4429L29.293 24.4Z" fill="white"/>
</svg>
