<svg width="58" height="40" viewBox="0 0 58 40" fill="none" xmlns="http://www.w3.org/2000/svg">
<path d="M56.5447 6.24841C56.216 5.03846 55.5714 3.93506 54.6756 3.04864C53.7797 2.16221 52.664 1.52386 51.44 1.19745C46.9348 2.42974e-07 28.875 0 28.875 0C28.875 0 10.8152 -2.42974e-07 6.30996 1.19108C5.08548 1.51643 3.96918 2.15443 3.07316 3.04102C2.17714 3.92761 1.53295 5.03157 1.20527 6.24204C-2.45869e-07 10.7006 0 20 0 20C0 20 -2.45869e-07 29.2994 1.20527 33.7516C1.86914 36.2102 3.82852 38.1465 6.30996 38.8025C10.8152 40 28.875 40 28.875 40C28.875 40 46.9348 40 51.44 38.8025C53.9279 38.1465 55.8809 36.2102 56.5447 33.7516C57.75 29.2994 57.75 20 57.75 20C57.75 20 57.75 10.7006 56.5447 6.24841ZM23.1387 28.535V11.465L38.0918 19.9363L23.1387 28.535Z" fill="white"/>
</svg>
